<svg xmlns="http://www.w3.org/2000/svg" xmlns:xlink="http://www.w3.org/1999/xlink" width="340" height="110" viewBox="0 0 340 110">
  <defs>
    <clipPath id="clip-path">
      <rect id="Rectangle_1003" data-name="Rectangle 1003" width="340" height="110" rx="18" transform="translate(37 504)" fill="#4c2b63" opacity="0.1"/>
    </clipPath>
  </defs>
  <g id="image_bilan_diagnos" transform="translate(-37 -504)">
    <rect id="Rectangle_988" data-name="Rectangle 988" width="340" height="110" rx="18" transform="translate(37 504)" fill="#f6ecfc"/>
    <g id="Groupe_de_masques_3" data-name="Groupe de masques 3" clip-path="url(#clip-path)">
      <g id="files-medical-duotone" transform="matrix(0.966, -0.259, 0.259, 0.966, 61.717, 484.742)" opacity="0.5">
        <path id="Tracé_5052" data-name="Tracé 5052" d="M66.027,16.511V0h-34.4A4.128,4.128,0,0,0,27.5,4.128V67.422a4.128,4.128,0,0,0,4.128,4.128H78.41a4.128,4.128,0,0,0,4.128-4.128V16.511Zm5.5,31.647a1.376,1.376,0,0,1-1.376,1.376H60.523v9.632a1.376,1.376,0,0,1-1.376,1.376H50.891a1.376,1.376,0,0,1-1.376-1.376V49.534H39.884a1.376,1.376,0,0,1-1.376-1.376V39.9a1.376,1.376,0,0,1,1.376-1.376h9.632V28.9a1.376,1.376,0,0,1,1.376-1.376h8.256A1.376,1.376,0,0,1,60.523,28.9v9.632h9.632A1.376,1.376,0,0,1,71.531,39.9Z" transform="translate(-5.485 0)" fill="#4c2b63" opacity="0.4"/>
        <path id="Tracé_5053" data-name="Tracé 5053" d="M16.511,67.422V16.511H4.128A4.128,4.128,0,0,0,0,20.639V83.933a4.128,4.128,0,0,0,4.128,4.128H50.91a4.128,4.128,0,0,0,4.128-4.128v-6.88h-28.9a9.642,9.642,0,0,1-9.632-9.632Zm48.158-28.9H55.038V28.9a1.376,1.376,0,0,0-1.376-1.376H45.406A1.376,1.376,0,0,0,44.031,28.9v9.632H34.4A1.376,1.376,0,0,0,33.023,39.9v8.256A1.376,1.376,0,0,0,34.4,49.534h9.632v9.632a1.376,1.376,0,0,0,1.376,1.376h8.256a1.376,1.376,0,0,0,1.376-1.376V49.534H64.67a1.376,1.376,0,0,0,1.376-1.376V39.9A1.376,1.376,0,0,0,64.67,38.527Zm11.18-25.971L64.5,1.2A4.128,4.128,0,0,0,61.574,0H60.542V16.511H77.053V15.469a4.128,4.128,0,0,0-1.2-2.913Z" transform="translate(0)" fill="#4c2b63"/>
      </g>
    </g>
  </g>
</svg>
