<svg xmlns="http://www.w3.org/2000/svg" xmlns:xlink="http://www.w3.org/1999/xlink" width="340" height="110" viewBox="0 0 340 110">
  <defs>
    <clipPath id="clip-path">
      <rect id="Rectangle_1001" data-name="Rectangle 1001" width="340" height="110" rx="18" transform="translate(37 245)" fill="#38bbec" opacity="0.1"/>
    </clipPath>
  </defs>
  <g id="image_score" transform="translate(-37 -245)">
    <rect id="Rectangle_997" data-name="Rectangle 997" width="340" height="110" rx="18" transform="translate(37 245)" fill="#eaf8fd"/>
    <g id="Groupe_de_masques_1" data-name="Groupe de masques 1" clip-path="url(#clip-path)">
      <g id="calculator-alt-duotone" transform="translate(63.2 237.948) rotate(-17)" opacity="0.64">
        <path id="Tracé_5048" data-name="Tracé 5048" d="M28.5,0H4.75A4.75,4.75,0,0,0,0,4.75V28.5a4.75,4.75,0,0,0,4.75,4.75H28.5a4.75,4.75,0,0,0,4.75-4.75V4.75A4.75,4.75,0,0,0,28.5,0ZM26.125,17.813A1.188,1.188,0,0,1,24.938,19H8.313a1.188,1.188,0,0,1-1.188-1.188V15.438A1.188,1.188,0,0,1,8.313,14.25H24.938a1.188,1.188,0,0,1,1.188,1.188ZM28.5,42.75H4.75A4.75,4.75,0,0,0,0,47.5V71.25A4.75,4.75,0,0,0,4.75,76H28.5a4.75,4.75,0,0,0,4.75-4.75V47.5A4.75,4.75,0,0,0,28.5,42.75ZM24.182,63.575a1.187,1.187,0,0,1,0,1.679L22.5,66.932a1.188,1.188,0,0,1-1.679,0l-4.2-4.2-4.2,4.2a1.187,1.187,0,0,1-1.679,0l-1.679-1.68a1.188,1.188,0,0,1,0-1.679l4.2-4.2-4.2-4.2a1.188,1.188,0,0,1,0-1.679l1.679-1.679a1.188,1.188,0,0,1,1.679,0l4.2,4.2,4.2-4.2a1.188,1.188,0,0,1,1.679,0L24.182,53.5a1.187,1.187,0,0,1,0,1.679l-4.2,4.2ZM71.25,0H47.5a4.75,4.75,0,0,0-4.75,4.75V28.5a4.75,4.75,0,0,0,4.75,4.75H71.25A4.75,4.75,0,0,0,76,28.5V4.75A4.75,4.75,0,0,0,71.25,0ZM68.875,17.813A1.188,1.188,0,0,1,67.688,19H61.75v5.938a1.188,1.188,0,0,1-1.188,1.188H58.188A1.188,1.188,0,0,1,57,24.938V19H51.063a1.188,1.188,0,0,1-1.188-1.188V15.438a1.188,1.188,0,0,1,1.188-1.188H57V8.313a1.188,1.188,0,0,1,1.188-1.188h2.375A1.188,1.188,0,0,1,61.75,8.313V14.25h5.938a1.188,1.188,0,0,1,1.188,1.188Z" fill="#38bbec" opacity="0.4"/>
        <path id="Tracé_5049" data-name="Tracé 5049" d="M27.37,56.683,25.691,55a1.188,1.188,0,0,0-1.679,0l-4.2,4.2-4.2-4.2a1.188,1.188,0,0,0-1.679,0l-1.679,1.679a1.188,1.188,0,0,0,0,1.679l4.2,4.2-4.2,4.2a1.188,1.188,0,0,0,0,1.679l1.679,1.68a1.188,1.188,0,0,0,1.679,0l4.2-4.2,4.2,4.2a1.188,1.188,0,0,0,1.679,0l1.679-1.679a1.188,1.188,0,0,0,0-1.679l-4.2-4.2,4.2-4.2A1.187,1.187,0,0,0,27.37,56.683Zm26.881-34.5h5.938v5.938a1.188,1.188,0,0,0,1.188,1.188H63.75a1.188,1.188,0,0,0,1.188-1.188V22.188h5.938A1.188,1.188,0,0,0,72.063,21V18.625a1.188,1.188,0,0,0-1.188-1.188H64.938V11.5a1.188,1.188,0,0,0-1.188-1.188H61.375A1.188,1.188,0,0,0,60.188,11.5v5.938H54.25a1.188,1.188,0,0,0-1.188,1.188V21A1.188,1.188,0,0,0,54.25,22.188Zm-26.125-4.75H11.5a1.188,1.188,0,0,0-1.188,1.188V21A1.188,1.188,0,0,0,11.5,22.188H28.125A1.188,1.188,0,0,0,29.313,21V18.625A1.188,1.188,0,0,0,28.125,17.438Zm46.313,28.5H50.688a4.75,4.75,0,0,0-4.75,4.75v23.75a4.75,4.75,0,0,0,4.75,4.75h23.75a4.75,4.75,0,0,0,4.75-4.75V50.688A4.75,4.75,0,0,0,74.438,45.938ZM72.063,68.5a1.188,1.188,0,0,1-1.188,1.188H54.25A1.188,1.188,0,0,1,53.063,68.5V66.125a1.188,1.188,0,0,1,1.188-1.188H70.875a1.188,1.188,0,0,1,1.188,1.188Zm0-9.5a1.187,1.187,0,0,1-1.188,1.188H54.25A1.188,1.188,0,0,1,53.063,59V56.625a1.188,1.188,0,0,1,1.188-1.188H70.875a1.188,1.188,0,0,1,1.188,1.188Z" transform="translate(-3.187 -3.187)" fill="#38bbec"/>
      </g>
    </g>
  </g>
</svg>
