<?xml version="1.0" encoding="utf-8"?>
<!-- Generator: Adobe Illustrator 24.2.1, SVG Export Plug-In . SVG Version: 6.00 Build 0)  -->
<svg version="1.0" xmlns="http://www.w3.org/2000/svg" xmlns:xlink="http://www.w3.org/1999/xlink" x="0px" y="0px"
	 viewBox="0 0 753.5 141.7" style="enable-background:new 0 0 753.5 141.7;" xml:space="preserve">
<style type="text/css">
	.st0{display:none;}
	.st1{display:inline;}
	.st2{fill:none;}
	.st3{fill:#001489;}
</style>
<g id="Clearspace" class="st0">
	<g class="st1">
		<rect x="142.1" y="-70.4" class="st2" width="70.9" height="70.9"/>
		<rect x="-70.5" y="142.2" class="st2" width="70.9" height="70.9"/>
	</g>
</g>
<g id="UCB_x5F_Logo">
	<g>
		<g>
			<path class="st3" d="M176.2,0.4h3.1v49.9h-3.1V0.4z"/>
			<path class="st3" d="M189.8,14.7h3V21c0,1.6-0.3,2.9-0.3,2.9h0.1c1.2-3.4,6.2-10.1,15.1-10.1c9.3,0,11.8,5.5,11.8,13.9v22.6h-3
				V28.8c0-6.2-0.8-12.1-8.8-12.1c-6.7,0-12.6,4.7-14.4,11.3c-0.4,1.5-0.6,3.1-0.6,4.8v17.4h-3V14.7z"/>
			<path class="st3" d="M226.8,43.8c0,0,4,4.5,11.1,4.5c4.4,0,8.2-2.3,8.2-6.7c0-9.1-19.6-6.5-19.6-18.1c0-6.3,5.3-9.6,11.4-9.6
				c7.3,0,10.6,3.9,10.6,3.9l-1.8,2.4c0,0-2.9-3.4-9-3.4c-4.1,0-8.1,1.9-8.1,6.5c0,9.3,19.6,6.5,19.6,18.3c0,5.7-4.8,9.6-11.4,9.6
				c-8.6,0-12.9-5.1-12.9-5.1L226.8,43.8z"/>
			<path class="st3" d="M255.6,14.7h3V19c0,1.6-0.2,2.9-0.2,2.9h0.1c0,0,2.9-8,12.8-8c9.6,0,15.4,7.6,15.4,18.7
				c0,11.3-6.6,18.7-15.8,18.7c-9.3,0-12.5-8.1-12.5-8.1h-0.1c0,0,0.3,1.3,0.3,3.1v18.3h-3V14.7z M270.9,48.3
				c7,0,12.7-5.8,12.7-15.8c0-9.6-5.1-15.8-12.4-15.8c-6.6,0-12.7,4.6-12.7,15.8C258.5,40.5,262.9,48.3,270.9,48.3z"/>
			<path class="st3" d="M293.6,0.4h3.6v5.2h-3.6V0.4z M293.9,14.7h3v35.7h-3V14.7z"/>
			<path class="st3" d="M306,14.7h3v6.8c0,1.6-0.3,2.9-0.3,2.9h0.1c1.8-5.5,5.8-10,11.4-10c1.1,0,2.1,0.2,2.1,0.2v3
				c0,0-0.9-0.1-1.6-0.1c-5.6,0-9.1,4.7-10.6,10c-0.8,2.5-1.1,5.1-1.1,7.5v15.4h-3V14.7z"/>
			<path class="st3" d="M340.2,13.8c9.7,0,14.5,7.6,14.5,16.3c0,0.8-0.1,1.9-0.1,1.9H326c0,10.3,7,16.3,15.3,16.3
				c6.8,0,11.1-4.5,11.1-4.5l1.6,2.5c0,0-5,4.9-12.7,4.9c-10.1,0-18.4-7.3-18.4-18.6C322.8,20.5,331,13.8,340.2,13.8z M351.6,29.2
				c-0.4-8.7-5.6-12.6-11.5-12.6c-6.6,0-12.6,4.3-13.9,12.6H351.6z"/>
			<path class="st3" d="M375.5,13.8c9,0,12.3,8.1,12.3,8.1h0.1c0,0-0.3-1.3-0.3-2.9V0.4h3v49.9h-3v-4.5c0-1.6,0.3-2.7,0.3-2.7h-0.1
				c0,0-3.1,8.1-12.9,8.1c-9.6,0-15.4-7.6-15.4-18.7C359.5,21.2,366.1,13.8,375.5,13.8z M375,48.3c6.6,0,12.7-4.6,12.7-15.8
				c0-7.9-4.1-15.7-12.4-15.7c-7,0-12.7,5.8-12.7,15.8C362.6,42.1,367.8,48.3,375,48.3z"/>
			<path class="st3" d="M420.1,0.4h3V19c0,1.6-0.3,2.9-0.3,2.9h0.1c0,0,3.1-8.1,12.9-8.1c9.6,0,15.4,7.6,15.4,18.7
				c0,11.3-6.6,18.7-16,18.7c-9,0-12.3-8.1-12.3-8.1h-0.1c0,0,0.3,1.3,0.3,3.1v4.1h-3V0.4z M435.4,48.3c7,0,12.7-5.8,12.7-15.8
				c0-9.6-5.1-15.8-12.4-15.8c-6.6,0-12.7,4.6-12.7,15.8C423,40.5,427.1,48.3,435.4,48.3z"/>
			<path class="st3" d="M452.9,60.8c0,0,2,1.7,4.4,1.7c3.4,0,5.6-3.1,7-6.4l2.6-5.9l-14.8-35.4h3.2l11.8,28.5
				c0.7,1.7,1.3,3.4,1.3,3.4h0.1c0,0,0.5-1.6,1.2-3.4l11.8-28.5h3.2l-18.3,44c-1.6,3.7-4.6,6.6-9.1,6.6c-3.4,0-5.8-2-5.8-2
				L452.9,60.8z"/>
			<path class="st3" d="M506.7,14.3h6.3v3.1c0,1.4-0.1,2.6-0.1,2.6h0.1c0,0,3.1-6.6,12.1-6.6c9.7,0,15.8,7.7,15.8,18.9
				c0,11.5-6.9,18.9-16.3,18.9c-7.9,0-11.1-5.9-11.1-5.9h-0.1c0,0,0.1,1.3,0.1,3.1v16.2h-6.9V14.3z M523.6,45.3
				c5.7,0,10.4-4.7,10.4-12.9c0-7.8-4.2-12.9-10.2-12.9c-5.4,0-10.4,3.8-10.4,13C513.4,38.9,517,45.3,523.6,45.3z"/>
			<path class="st3" d="M565.4,27.8h1.6v-0.6c0-5.9-3.4-7.9-7.9-7.9c-5.6,0-10.1,3.5-10.1,3.5l-2.9-5.1c0,0,5.2-4.3,13.5-4.3
				c9.1,0,14.3,5,14.3,14.1v22.8h-6.4v-3.4c0-1.6,0.1-2.9,0.1-2.9h-0.1c0,0-2.9,7.1-11.6,7.1c-6.2,0-12.3-3.8-12.3-11
				C543.6,28.3,559.3,27.8,565.4,27.8z M557.4,45.6c5.8,0,9.6-6.1,9.6-11.5V33h-1.8c-5.2,0-14.6,0.4-14.6,6.8
				C550.6,42.8,552.9,45.6,557.4,45.6z"/>
			<path class="st3" d="M581.9,20.3h-4.7v-5.6h4.9V4.4h6.7v10.4h8.7v5.6h-8.7v16c0,7.2,5.1,8.1,7.7,8.1c1,0,1.6-0.1,1.6-0.1v6.1
				c0,0-1,0.1-2.4,0.1c-4.6,0-13.8-1.4-13.8-13.5V20.3z"/>
			<path class="st3" d="M602.1,0h7v7.1h-7V0z M602.2,14.3h6.9v36.1h-6.9V14.3z"/>
			<path class="st3" d="M632.6,13.4c10.2,0,15.6,7.6,15.6,16.9c0,0.9-0.2,3-0.2,3h-26.3c0.4,7.9,6,11.9,12.4,11.9
				c6.2,0,10.7-4.2,10.7-4.2l2.9,5.1c0,0-5.3,5.1-14,5.1c-11.3,0-19.1-8.2-19.1-18.9C614.6,20.8,622.4,13.4,632.6,13.4z M641.2,28.1
				c-0.2-6.2-4.1-9.2-8.7-9.2c-5.3,0-9.6,3.3-10.6,9.2H641.2z"/>
			<path class="st3" d="M654,14.3h6.7V19c0,1.4-0.1,2.6-0.1,2.6h0.1c1.4-3.1,5.7-8.3,13.5-8.3c8.5,0,12.4,4.6,12.4,13.8v23.1h-6.9
				V28.8c0-5.1-1.1-9.1-6.8-9.1c-5.5,0-9.9,3.6-11.4,8.8c-0.4,1.4-0.6,3.1-0.6,4.8v16.9H654V14.3z"/>
			<path class="st3" d="M694.7,20.3H690v-5.6h4.9V4.4h6.7v10.4h8.7v5.6h-8.7v16c0,7.2,5.1,8.1,7.7,8.1c1,0,1.6-0.1,1.6-0.1v6.1
				c0,0-1,0.1-2.4,0.1c-4.6,0-13.8-1.4-13.8-13.5V20.3z"/>
			<path class="st3" d="M716.8,41c0,0,4.1,4.2,10.3,4.2c3,0,6-1.6,6-4.5c0-6.6-18.5-5.3-18.5-17c0-6.6,5.8-10.3,13-10.3
				c7.9,0,11.6,4,11.6,4l-2.8,5.2c0,0-3.2-3.2-8.9-3.2c-3,0-5.9,1.3-5.9,4.4c0,6.5,18.5,5.1,18.5,16.9c0,6-5.1,10.5-13,10.5
				c-8.8,0-13.7-5.3-13.7-5.3L716.8,41z"/>
			<path class="st3" d="M746.2,43h7.3v7.3h-7.3V43z"/>
			<path class="st3" d="M176.2,76.8h15.7c14.8,0,24.9,9.1,24.9,25c0,15.9-10.1,25-24.9,25h-15.7V76.8z M191.4,123.9
				c13.3,0,22.2-7.8,22.2-22.1c0-14.3-8.9-22.1-22.2-22.1h-12.1v44.2H191.4z"/>
			<path class="st3" d="M225,91.1h3v6.8c0,1.6-0.3,2.9-0.3,2.9h0.1c1.8-5.5,5.8-10,11.4-10c1.1,0,2.1,0.2,2.1,0.2v3
				c0,0-0.9-0.1-1.6-0.1c-5.6,0-9.1,4.7-10.6,10c-0.8,2.5-1.1,5.1-1.1,7.5v15.4h-3V91.1z"/>
			<path class="st3" d="M245.6,76.8h3.6V82h-3.6V76.8z M245.9,91.1h3v35.7h-3V91.1z"/>
			<path class="st3" d="M253.3,91.1h3.2l11,28c0.6,1.7,1.2,3.8,1.2,3.8h0.1c0,0,0.6-2.1,1.2-3.8l11-28h3.1l-14,35.7h-2.9L253.3,91.1
				z"/>
			<path class="st3" d="M302.3,90.2c9.7,0,14.5,7.6,14.5,16.3c0,0.8-0.1,1.9-0.1,1.9h-28.6c0,10.3,7,16.3,15.3,16.3
				c6.8,0,11.1-4.5,11.1-4.5l1.6,2.5c0,0-5,4.9-12.7,4.9c-10.1,0-18.4-7.3-18.4-18.6C285,97,293.2,90.2,302.3,90.2z M313.7,105.7
				C313.3,97,308.1,93,302.2,93c-6.6,0-12.6,4.3-13.9,12.6H313.7z"/>
			<path class="st3" d="M323.8,91.1h3v6.3c0,1.6-0.3,2.9-0.3,2.9h0.1c1.2-3.4,6.2-10.1,15.1-10.1c9.3,0,11.8,5.5,11.8,13.9v22.6h-3
				v-21.5c0-6.2-0.8-12.1-8.8-12.1c-6.7,0-12.6,4.7-14.4,11.3c-0.4,1.5-0.6,3.1-0.6,4.8v17.4h-3V91.1z"/>
			<path class="st3" d="M382.5,76.8h3v18.5c0,1.6-0.3,2.9-0.3,2.9h0.1c0,0,3.1-8.1,12.9-8.1c9.6,0,15.4,7.6,15.4,18.7
				c0,11.3-6.6,18.7-16,18.7c-9,0-12.3-8.1-12.3-8.1h-0.1c0,0,0.3,1.3,0.3,3.1v4.1h-3V76.8z M397.8,124.7c7,0,12.7-5.8,12.7-15.8
				c0-9.6-5.1-15.8-12.4-15.8c-6.6,0-12.7,4.6-12.7,15.8C385.4,116.9,389.5,124.7,397.8,124.7z"/>
			<path class="st3" d="M415.3,137.2c0,0,2,1.7,4.4,1.7c3.4,0,5.6-3.1,7-6.4l2.6-5.9l-14.8-35.4h3.2l11.8,28.5
				c0.7,1.7,1.3,3.4,1.3,3.4h0.1c0,0,0.5-1.6,1.2-3.4l11.8-28.5h3.2l-18.3,44c-1.6,3.7-4.6,6.6-9.1,6.6c-3.4,0-5.8-2-5.8-2
				L415.3,137.2z"/>
			<path class="st3" d="M469.5,117.4c0,0,4.1,4.2,10.3,4.2c3,0,6-1.6,6-4.5c0-6.6-18.5-5.3-18.5-17c0-6.6,5.8-10.3,13-10.3
				c7.9,0,11.6,4,11.6,4l-2.8,5.2c0,0-3.2-3.2-8.9-3.2c-3,0-5.9,1.3-5.9,4.4c0,6.5,18.5,5.1,18.5,16.9c0,6-5.1,10.5-13,10.5
				c-8.8,0-13.7-5.3-13.7-5.3L469.5,117.4z"/>
			<path class="st3" d="M514.6,89.8c9.1,0,13.5,5.3,13.5,5.3l-3.3,4.8c0,0-3.9-4.1-10-4.1c-7.3,0-12.5,5.4-12.5,12.8
				c0,7.3,5.3,13,12.8,13c6.7,0,11.1-4.8,11.1-4.8l2.8,5.1c0,0-5,5.8-14.4,5.8c-11.3,0-19.3-8.1-19.3-18.9
				C495.3,98,503.3,89.8,514.6,89.8z"/>
			<path class="st3" d="M533.2,76.4h7v7.1h-7V76.4z M533.3,90.7h6.9v36.1h-6.9V90.7z"/>
			<path class="st3" d="M563.7,89.8c10.2,0,15.6,7.6,15.6,16.9c0,0.9-0.2,3-0.2,3h-26.3c0.4,7.9,6,11.9,12.4,11.9
				c6.2,0,10.7-4.2,10.7-4.2l2.9,5.1c0,0-5.3,5.1-14,5.1c-11.3,0-19.1-8.2-19.1-18.9C545.7,97.2,553.5,89.8,563.7,89.8z
				 M572.3,104.5c-0.2-6.2-4.1-9.2-8.7-9.2c-5.3,0-9.6,3.3-10.6,9.2H572.3z"/>
			<path class="st3" d="M585,90.7h6.7v4.8c0,1.4-0.1,2.6-0.1,2.6h0.1c1.4-3.1,5.7-8.3,13.5-8.3c8.5,0,12.4,4.6,12.4,13.8v23.1h-6.9
				v-21.5c0-5.1-1.1-9.1-6.8-9.1c-5.5,0-9.9,3.6-11.4,8.8c-0.4,1.4-0.6,3.1-0.6,4.8v16.9H585V90.7z"/>
			<path class="st3" d="M642.1,89.8c9.1,0,13.5,5.3,13.5,5.3l-3.3,4.8c0,0-3.9-4.1-10-4.1c-7.3,0-12.5,5.4-12.5,12.8
				c0,7.3,5.3,13,12.8,13c6.7,0,11.1-4.8,11.1-4.8l2.8,5.1c0,0-5,5.8-14.4,5.8c-11.3,0-19.3-8.1-19.3-18.9
				C622.7,98,630.7,89.8,642.1,89.8z"/>
			<path class="st3" d="M675.9,89.8c10.2,0,15.6,7.6,15.6,16.9c0,0.9-0.2,3-0.2,3H665c0.4,7.9,6,11.9,12.4,11.9
				c6.2,0,10.7-4.2,10.7-4.2l2.9,5.1c0,0-5.3,5.1-14,5.1c-11.3,0-19.1-8.2-19.1-18.9C657.9,97.2,665.7,89.8,675.9,89.8z
				 M684.5,104.5c-0.2-6.2-4.1-9.2-8.7-9.2c-5.3,0-9.6,3.3-10.6,9.2H684.5z"/>
			<path class="st3" d="M697.1,119.4h7.3v7.3h-7.3V119.4z"/>
		</g>
		<g>
			<polygon class="st3" points="63.6,0.4 62.8,0.4 62.8,51.2 61,51.2 61,67 54.4,67 54.4,51.2 46.1,51.2 46.1,76 62.8,76 
				62.8,126.8 63.6,126.8 63.6,76 70,76 70,51.2 63.6,51.2 			"/>
			<g>
				<path class="st3" d="M53.3,0.4H0v53.3C4.2,26.3,25.9,4.7,53.3,0.4z"/>
				<path class="st3" d="M126.3,53.8l0-53.3H75h-2C100.4,4.7,122.1,26.3,126.3,53.8z"/>
				<path class="st3" d="M0,73.4v53.3h53.3C25.9,122.5,4.2,100.9,0,73.4z"/>
				<path class="st3" d="M73,126.8l53.3,0V73.4C122.1,100.9,100.4,122.5,73,126.8z"/>
			</g>
			<g>
				<path class="st3" d="M104.6,51.2v-14h-9V76h24.4V51.2H104.6z M111.6,67h-7v-6.8h7V67z"/>
			</g>
			<polygon class="st3" points="92.8,67 82,67 82,60.2 92.8,60.2 92.8,51.2 73,51.2 73,76 92.8,76 			"/>
		</g>
	</g>
</g>
</svg>
