<?xml version="1.0" encoding="utf-8"?>
<!-- Generator: Adobe Illustrator 25.2.0, SVG Export Plug-In . SVG Version: 6.00 Build 0)  -->
<svg version="1.1" id="Layer_1" xmlns="http://www.w3.org/2000/svg" xmlns:xlink="http://www.w3.org/1999/xlink" x="0px" y="0px"
	 width="1208.4px" height="379.4px" viewBox="0 -156 1208.4 379.4" style="enable-background:new 0 0 1208.4 223.4;"
	 xml:space="preserve">
<style type="text/css">
	.st0{fill:#929292;}
	.st1{fill:#FFFFFF;}
	.st2{fill:#ED8B00;}
	.st3{fill:#9D9D9C;}
	.st4{fill:#1D1D1B;}
	.st5{fill:#004C45;}
</style>
<polygon class="st2" points="479,0 440.5,24.7 450.2,40.1 490.3,19.2 "/>
<path class="st5" d="M71.3,110.7l18.8,2.6v16.6c-2.4,0.5-5.4,0.3-7.1,0.3c-30,0-37.9-18.2-37.9-40.9C45,62,63.4,50.1,83.1,50.1
	c5.8,0,11.8,0.7,11.8,1.5l1.9,14.4h34.4V19.4c-11.7-4-25.9-6.5-50.2-6.5c-50.2,0-81,36.9-81,78.4c0,49.1,26.5,76.3,78.6,76.3
	c18,0,31.3-2.3,52.7-9.8v-45.3l9.1-1.3V83.6H71.3V110.7z M222.8,117.6c-20,0-26.4,4.2-26.4,12.1c0,5.4,3.9,11.1,13.5,11.1
	c9.8,0,19.7-6.3,19.7-23.2H222.8z M228.2,94.4c0-13.3-7.2-17.4-14.3-17.4c-9,0-11.6,1.1-16.8,3l-1.4,11.7h-21.7V58.3
	c10.9-5,22.6-7.6,42.5-7.6c29.9,0,46.1,10.1,46.1,42.6c0,18.4-0.6,30.4-1.1,46.2l18.1,1.8v23.2l-20.7,1.6h-27.5v-7.9
	c0-7.3-0.2-4.9,0.9-9.2c0,0-10.4,18.6-28.5,18.6c-25.2,0-37.4-15-37.4-32.5c0-16,10.7-26.5,22.4-30.8c11.3-4.1,17.4-7.2,39.2-7.2
	V94.4z M328.7,144.2l-19.4,2.4v18.4h66.2v-18.4l-18.1-2.5V2.7h-26.9l-21.2,2.6v17.3l19.4,3.1V144.2z M592.6,144.1
	c4.4,3,11.2,4.7,19.3,4.7c19.8,0,31-19.2,31-41c0-20.7-7.1-35.3-23.2-35.3c-16.5,0-27.1,14.8-27.1,40.6V144.1z M549.8,56.4l20.7-2.5
	h21.2c0,7.9-1.7,22.7-1.7,22.7c5.8-15,18-25.2,37-25.2c23.6,0,40.6,19.6,40.6,52.8c0,36.8-20.1,63.5-53.9,63.5
	c-7.9,0-15.4-1.1-22-3.6l-0.4,55.5h-23.1l0.9-146.2l-19.3-1.7V56.4z M773.6,115.3c-23.4,0-46.9,4.5-46.9,19.2c0,11.5,7.5,17,17.7,17
	C755.1,151.5,773.6,146,773.6,115.3 M717,77.2l-3.4-16.3c12.2-4.9,22.9-8.1,36.3-8.1c28.4,0,44.5,10,44.5,39.3
	c0,9.6-0.4,37.9-0.4,57.8l19.1,1.8v11.9l-18.9,1.5l-18.2,0.1v-4.5c0-6.4,0.4-16.4,0.4-16.4c-6.9,14.8-19.7,23.5-35.6,23.5
	c-12.6,0-34.7-4.6-33.6-31.6c1-23.8,29.6-35.2,66.6-35.2v-6.5c0-20.7-8.5-26.1-25.8-26.1c-6.2,0-17.2,1.9-24.5,5.5
	C718.8,76,717,77.2,717,77.2 M868.9,92.4c0,15.4,13,27.1,28.4,27.1c18.8,0,30.8-12.4,30.8-27.8c0-10.7-8.1-26.1-29.3-26.1
	C881.5,65.7,868.9,76.2,868.9,92.4 M889.8,167.6c-2.1,0-24.2,6.2-24.2,20.7c0,17.1,25.8,19.4,36.7,19.4c13.7,0,35.7-4.1,35.7-21.8
	c0-9.8-9-12.6-18.8-14.1L889.8,167.6z M958,68.2h-9.8c-3,0-11.8-0.9-14.8-1.1c8.8,8.5,10.5,18,10.5,26.5c0,24.6-20.7,39.3-46.6,39.3
	c-4.5,0-19.9,2.6-19.9,10.5c0,5.6,5.1,7.1,19,9.2l29.5,4.9c17.1,2.8,29.7,9,29.7,26.7c0,25.4-26.5,37-54.1,37
	c-26.5,0-52.6-8.6-52.6-30.1c0-16.7,13.4-23.9,27.8-27.1v-0.4c-8.8-1.9-16.9-6.8-16.9-17.1c0-11.3,11.1-14.3,20.1-16.7v-0.4
	c-7.5-1.7-27.8-9.2-27.8-37.2c0-22.9,18.8-40,45.7-40c6,0,14.1,1.3,19,2.6h41V68.2z M1044.5,155.8c24.6,0,36.6-20.1,36.6-45.1
	c0-25-12.1-45.2-36.6-45.2c-24.6,0-36.7,20.1-36.7,45.2C1007.9,135.7,1019.9,155.8,1044.5,155.8 M1044.4,53.7
	c32.7,0,52,22.5,52,53.3c0,34.2-19.4,59.1-52,59.1c-32.7,0-52.1-22.5-52.1-53.3C992.3,78.7,1011.6,53.7,1044.4,53.7 M1139.1,149.7
	c0,0-0.1,11.7-0.1,11.7c7.9,3.6,17.6,5.9,27.9,5.9c26.1,0,41.5-13.7,41.5-31.5c0-16.4-10.3-25.1-31.4-32
	c-17-5.5-26.8-10.3-26.8-22.6c0-10.5,8.4-19.6,24.2-19.6c13.2,0,21.6,4.6,25.4,7.1c0,0,0.1-11.6-0.1-11.7
	c-6.4-2.5-14.3-4.8-23.2-4.8c-24.9,0-37.9,14.8-37.9,30.4c0,13,10.3,23.3,31.2,29.7c18,5.5,27.1,11.6,27.1,24.4
	c0,11.2-8.9,21.3-29,21.3C1156.4,158,1146,153.8,1139.1,149.7 M466.5,116.7c-20.9,0-29.4,8-29.4,15.4c0,6.5,4.1,13.2,14.2,13.2
	c10.3,0,22.5-8.5,22.5-28.6H466.5z M473.4,93.9c0-16.9-7.1-18.9-21.1-18.9c-4.3,0-12.6,1.3-18.6,3.2c-6,1.9-14,4.3-14,4.3l-2.6-22.4
	c2.7-2,20-7.9,39.8-7.9c29.9,0,45.5,8.9,45.5,41.4c0,18.4-0.6,33.8-1.1,49.6l20,2v18.2l-19.6,1.6h-25.3v-6.8
	c0-7.3,1.1-11.2,1.1-11.2c-6.1,14.8-22.5,20.6-32.8,20.6c-25.2,0-35.1-15-35.1-32.5c0-16,15.5-27.5,24.2-30.5
	c11.4-3.9,18-7.2,39.8-7.2V93.9z"/>
</svg>
